<svg width="29" height="34" viewBox="0 0 29 34" fill="none" xmlns="http://www.w3.org/2000/svg">
<path d="M0.669069 33.3918C0.41212 33.6253 -2.38419e-07 33.443 -2.38419e-07 33.0958L-2.38419e-07 24.4C-2.38419e-07 24.1791 0.179086 24 0.4 24H9.96536C10.331 24 10.505 24.45 10.2344 24.696L0.669069 33.3918Z" fill="white"/>
<path fill-rule="evenodd" clip-rule="evenodd" d="M5 0C2.23858 0 0 2.23858 0 5V24C0 26.7614 2.23858 29 5 29H24C26.7614 29 29 26.7614 29 24V5C29 2.23858 26.7614 0 24 0H5ZM7.61991 20.7588C10.1149 23.5048 15.5688 26.381 22.0771 20.8369C22.4197 20.545 22.2093 20 21.7592 20H7.9821C7.57341 20 7.34508 20.4563 7.61991 20.7588Z" fill="white"/>
</svg>
